<svg xmlns="http://www.w3.org/2000/svg" width="1200" height="630" viewBox="0 0 1200 630">
  <defs>
    <linearGradient id="bg" x1="0" y1="0" x2="1" y2="1">
      <stop offset="0" stop-color="#eef8ff"/>
      <stop offset=".52" stop-color="#dce9ef"/>
      <stop offset="1" stop-color="#c8e4f7"/>
    </linearGradient>
  </defs>

  <rect width="1200" height="630" fill="url(#bg)"/>
  <rect x="66" y="66" width="1068" height="498" rx="44" fill="#fbfdff" opacity=".86"/>
  <rect x="66.5" y="66.5" width="1067" height="497" rx="43.5" fill="none" stroke="#a7c5da" stroke-opacity=".55"/>

  <svg x="128" y="184" width="216" height="216" viewBox="0 0 100 100">
    <circle cx="50" cy="50" r="42" fill="#0C76C8"/>
    <path fill="#fff" d="M51.7 88.5Q38 88.5 29.2 82.3Q20.5 76.1 18.6 65.7L35.6 62Q37 68.5 41.3 71.7Q45.7 74.9 52.2 74.9Q55.6 74.9 58.3 73.9Q60.9 73 62.5 71.1Q64 69.2 64 66.7Q64 64.3 62.4 62.5Q60.8 60.8 57.4 59.2Q54 57.6 48.6 55.8Q40.3 53 35 49.8Q29.6 46.5 27 42.3Q24.4 38.1 24.4 32.5Q24.4 26.5 27.8 21.9Q31.2 17.3 37.3 14.6Q43.4 12 51.4 12Q60 12 66.7 15.5Q73.4 18.9 77.4 25.9L63.5 33.3Q61.1 29.6 57.9 27.6Q54.7 25.6 50.8 25.6Q48.4 25.6 46.4 26.4Q44.3 27.2 43.1 28.7Q42 30.2 42 32.2Q42 34.3 43.4 36Q44.8 37.7 48.2 39.3Q51.7 41 57.7 42.9Q65.6 45.5 70.8 48.6Q76.1 51.7 78.7 55.9Q81.4 60 81.4 65.7Q81.4 72.4 77.7 77.5Q74 82.7 67.3 85.6Q60.6 88.5 51.7 88.5Z"/>
  </svg>

  <text x="404" y="264" fill="#092235" font-family="Hanken Grotesk, Helvetica Neue, Arial, sans-serif" font-size="86" font-weight="760" letter-spacing="0">Susuapps</text>
  <text x="409" y="337" fill="#092235" font-family="Hanken Grotesk, Helvetica Neue, Arial, sans-serif" font-size="38" font-weight="520" letter-spacing="0">Apple platform apps for that</text>
  <text x="409" y="414" fill="#526a7d" font-family="Hanken Grotesk, Helvetica Neue, Arial, sans-serif" font-size="30" font-weight="430" letter-spacing="0">Small apps. Simple and intuitive.</text>
</svg>
